<svg xmlns="http://www.w3.org/2000/svg" viewBox="0 0 39.64 31.957">
  <defs>
    <style>
      .cls-1 {
        fill: #f55d00;
      }
    </style>
  </defs>
  <g id="Group_2" data-name="Group 2" transform="translate(0 0)">
    <path id="Path_1" data-name="Path 1" class="cls-1" d="M516.683,1237.215a3.983,3.983,0,1,1,3.983-3.983A3.983,3.983,0,0,1,516.683,1237.215Zm0-5.576a1.593,1.593,0,1,0,1.593,1.593A1.593,1.593,0,0,0,516.683,1231.64Z" transform="translate(-506.108 -1205.258)"/>
    <path id="Path_2" data-name="Path 2" class="cls-1" d="M541.9,1237.215a3.983,3.983,0,1,1,3.983-3.983A3.983,3.983,0,0,1,541.9,1237.215Zm0-5.576a1.593,1.593,0,1,0,1.593,1.593A1.593,1.593,0,0,0,541.9,1231.64Z" transform="translate(-521.283 -1205.258)"/>
    <path id="Path_3" data-name="Path 3" class="cls-1" d="M521.4,1190.8H502.314a1.194,1.194,0,0,1-1.123-.8l-4.974-13.542a1.195,1.195,0,0,1,1.123-1.593h23.139a1.195,1.195,0,0,1,0,2.39H499.052l4.094,11.152h17.388l6.094-18.571a1.194,1.194,0,0,1,1.139-.824h6.826a1.195,1.195,0,1,1,0,2.39H528.62l-6.093,18.572A1.2,1.2,0,0,1,521.4,1190.8Z" transform="translate(-496.148 -1169.01)"/>
  </g>
</svg>
